<svg xmlns="http://www.w3.org/2000/svg" xmlns:xlink="http://www.w3.org/1999/xlink" viewBox="0 0 64 64"><defs><style>.cls-1{fill:url(#linear-gradient);}.cls-2{fill:url(#linear-gradient-2);}.cls-3{fill:url(#linear-gradient-3);}.cls-4{fill:url(#linear-gradient-4);}.cls-5{fill:url(#linear-gradient-5);}</style><linearGradient id="linear-gradient" x1="3" y1="36.44" x2="30.78" y2="36.44" gradientUnits="userSpaceOnUse"><stop offset="0" stop-color="#640278" id="id_124"></stop><stop offset="1" stop-color="#9d31fe" id="id_125"></stop></linearGradient><linearGradient id="linear-gradient-2" x1="33.22" y1="36.44" x2="61" y2="36.44" xlink:href="#linear-gradient"></linearGradient><linearGradient id="linear-gradient-3" x1="17.19" y1="18.72" x2="46.81" y2="18.72" xlink:href="#linear-gradient"></linearGradient><linearGradient id="linear-gradient-4" x1="33.78" y1="16.73" x2="40.12" y2="16.73" xlink:href="#linear-gradient"></linearGradient><linearGradient id="linear-gradient-5" x1="23.88" y1="16.73" x2="30.22" y2="16.73" xlink:href="#linear-gradient"></linearGradient></defs><g id="Layer_19" data-name="Layer 19"><path class="cls-1" d="M30.17,50.46a3.14,3.14,0,0,0-3.65-2.58l-.66.12s-.05,0-.05,0l-1.15-6.38a6.81,6.81,0,0,0-1.41-3.1l-3.59-4.43a1.05,1.05,0,0,1-.21-.47l-1-5.58a4.41,4.41,0,0,0-2.53-3.35,3.28,3.28,0,0,0-2.44-.06.05.05,0,0,1-.07-.06l1.67-7.61a3.74,3.74,0,0,0-2.32-4.17A3.61,3.61,0,0,0,8,15.5L3.35,32.75a12.57,12.57,0,0,0,.21,6.66A12.7,12.7,0,0,0,6.14,44l3.57,4.17a8.33,8.33,0,0,1,1.34,2.61.06.06,0,0,1,0,.07h-.07a3.22,3.22,0,0,0-2.52,3.75L9,57.69a3.15,3.15,0,0,0,3.65,2.59l15.58-3a3.21,3.21,0,0,0,2.52-3.75ZM7.51,42.66a10.85,10.85,0,0,1-2.18-3.84,10.59,10.59,0,0,1-.17-5.61L9.85,15.92v0a1.74,1.74,0,0,1,2.32-1.32,1.82,1.82,0,0,1,1.06,2s-2.08,10.44-2.08,10.44A3.83,3.83,0,0,0,11,28.89l1.71,9.56a1,1,0,0,0,1.09.77,1,1,0,0,0,.74-1.12l-1.71-9.55a1.9,1.9,0,0,1,2-2.26A2,2,0,0,1,16.55,28l1.07,6a3,3,0,0,0,.61,1.34l3.59,4.43a4.84,4.84,0,0,1,1,2.22L24,48.31a.07.07,0,0,1-.05.06L13,50.44s-.05,0-.05,0a10.66,10.66,0,0,0-1.8-3.54Zm20.4,13-15.59,3a1.44,1.44,0,0,1-1.67-1.18l-.55-3.12a1.47,1.47,0,0,1,1.15-1.72L26.83,49.6a1.43,1.43,0,0,1,1.67,1.18l.56,3.12A1.47,1.47,0,0,1,27.91,55.61Z" id="id_119"></path><path class="cls-2" d="M60.65,32.75,56,15.5a3.61,3.61,0,0,0-4.72-2.75,3.74,3.74,0,0,0-2.32,4.17l1.67,7.61a.05.05,0,0,1-.07.06,3.28,3.28,0,0,0-2.44.06A4.41,4.41,0,0,0,45.55,28l-1,5.58a1.05,1.05,0,0,1-.21.47l-3.59,4.43a6.81,6.81,0,0,0-1.41,3.1L38.19,48s0,0,0,0l-.66-.12a3.14,3.14,0,0,0-3.65,2.58l-.56,3.12a3.21,3.21,0,0,0,2.52,3.75l15.58,3A3.15,3.15,0,0,0,55,57.69l.56-3.12a3.22,3.22,0,0,0-2.52-3.75H53a.06.06,0,0,1,0-.07,8.33,8.33,0,0,1,1.34-2.61L57.86,44a12.7,12.7,0,0,0,2.58-4.55A12.57,12.57,0,0,0,60.65,32.75ZM53.9,54.26l-.55,3.12a1.44,1.44,0,0,1-1.67,1.18l-15.59-3a1.47,1.47,0,0,1-1.15-1.71l.56-3.12a1.43,1.43,0,0,1,1.67-1.18l15.58,2.94A1.47,1.47,0,0,1,53.9,54.26Zm4.77-15.44a10.85,10.85,0,0,1-2.18,3.84l-3.6,4.21a10.66,10.66,0,0,0-1.8,3.54s0,0-.05,0l-11-2.07a.07.07,0,0,1,0-.06l1.15-6.39a4.84,4.84,0,0,1,1-2.22l3.59-4.43a3,3,0,0,0,.61-1.34l1.07-6a2,2,0,0,1,1.71-1.67,1.9,1.9,0,0,1,2,2.26L49.42,38.1a1,1,0,0,0,.74,1.12,1,1,0,0,0,1.09-.77L53,28.89a3.83,3.83,0,0,0-.12-1.84s-2.08-10.43-2.08-10.44a1.82,1.82,0,0,1,1.06-2,1.74,1.74,0,0,1,2.32,1.32v0l4.69,17.29A10.59,10.59,0,0,1,58.67,38.82Z" id="id_120"></path><path class="cls-3" d="M38.12,29.34l.1-.06c3.8-2.61,5.68-5.47,6.07-9.35a1.67,1.67,0,0,0,.75.19,2,2,0,0,0,.53-.08,1.82,1.82,0,0,0,1.24-1.8l0-7.53A4.89,4.89,0,0,0,43.5,6L37,4a1.7,1.7,0,0,0-1.9.62,2.15,2.15,0,0,0-.27.52,11.62,11.62,0,0,0-5.68,0,2.15,2.15,0,0,0-.27-.52A1.7,1.7,0,0,0,27,4L20.5,6a4.87,4.87,0,0,0-3.29,4.73l0,7.53A1.78,1.78,0,0,0,19,20.12a1.67,1.67,0,0,0,.75-.19c.39,3.88,2.27,6.74,6.06,9.34l.11.07a6.56,6.56,0,0,0,12.24,0Zm4.8-21.45a2.89,2.89,0,0,1,1.87,2.82l0,6.92L41,12,36.88,6ZM19.21,10.71a2.89,2.89,0,0,1,1.87-2.82l6-1.85L19.19,17.63Zm2.41,7.58c0-.24,0-.48,0-.72l3.05-4.44L28.61,7.4a9.44,9.44,0,0,1,6.78,0l3.91,5.73,3.05,4.44c0,.24,0,.48,0,.72,0,4.05-1.54,6.76-5.3,9.35A8.75,8.75,0,0,1,35,28.71l-.11,0h0l-.11,0a1.45,1.45,0,0,1-.47.08,4.61,4.61,0,0,1-1.3-.24v-2a1.8,1.8,0,0,0,.5-.41l1.29-1.51a2,2,0,0,0-1.5-3.25H30.71a2,2,0,0,0-1.5,3.25l1.29,1.51a1.8,1.8,0,0,0,.5.41v2a4.67,4.67,0,0,1-1.3.24,1.45,1.45,0,0,1-.47-.08l-.11,0h0a8.68,8.68,0,0,1-2.21-1.12C23.16,25.05,21.62,22.34,21.62,18.29ZM32,24.85l-1.29-1.44,2.56-.05Zm-2.33,6h0a6.25,6.25,0,0,0,2.3-.5,6.25,6.25,0,0,0,2.3.5h0a4.39,4.39,0,0,1-4.66,0Z" id="id_121"></path><path class="cls-4" d="M34.78,18.94a1,1,0,0,0,1-1,1.19,1.19,0,1,1,2.34,0,1,1,0,1,0,2,0,3.18,3.18,0,1,0-6.34,0A1,1,0,0,0,34.78,18.94Z" id="id_122"></path><path class="cls-5" d="M28.22,17.94a1,1,0,0,0,2,0,3.31,3.31,0,0,0-3.17-3.43,3.31,3.31,0,0,0-3.17,3.43,1,1,0,0,0,2,0,1.32,1.32,0,0,1,1.17-1.43A1.32,1.32,0,0,1,28.22,17.94Z" id="id_123"></path></g></svg>