<svg width="64" height="64" viewBox="0 0 64 64" fill="none" xmlns="http://www.w3.org/2000/svg">
<path d="M49.2799 30.2499C49.1565 30.2035 49.0251 30.182 48.8934 30.1866C48.7616 30.1912 48.6321 30.2218 48.5122 30.2766C48.3923 30.3314 48.2844 30.4094 48.1948 30.5061C48.1052 30.6028 48.0355 30.7162 47.9899 30.8399C47.7232 31.587 47.3005 32.2688 46.7499 32.8399C44.8899 32.2899 41.8499 31.3999 41.8099 31.4599C41.7699 31.5199 39.6699 32.1199 38.3499 32.4599C37.5699 31.7799 37.5399 29.7999 36.1299 30.2299C35.8825 30.3222 35.6816 30.5085 35.5711 30.7483C35.4605 30.9881 35.4493 31.2619 35.5399 31.5099C36.0619 32.9949 37.032 34.2812 38.3163 35.1911C39.6007 36.1011 41.1359 36.5898 42.7099 36.5898C44.2839 36.5898 45.8191 36.1011 47.1035 35.1911C48.3878 34.2812 49.358 32.9949 49.8799 31.5099C49.9639 31.2631 49.9481 30.9933 49.836 30.758C49.724 30.5226 49.5244 30.3403 49.2799 30.2499Z" fill="url(#paint0_linear)" id="id_126"></path>
<path d="M56.9999 18.1099H55.9999L55.3199 18.1799L48.3399 6.28992C48.4363 6.04699 48.4338 5.77594 48.3329 5.53483C48.232 5.29373 48.0407 5.10172 47.7999 4.99992C44.5373 3.65042 40.8725 3.65042 37.6099 4.99992C37.4539 5.06983 37.3185 5.17855 37.2165 5.31571C37.1144 5.45287 37.0493 5.61389 37.0272 5.78339C37.0052 5.9529 37.0269 6.12523 37.0904 6.28393C37.1539 6.44264 37.257 6.58242 37.3899 6.68992L30.1499 17.4099C29.9761 17.2368 29.7448 17.1336 29.4999 17.1199C28.2899 17.1199 28.4199 18.4499 28.4099 19.3099C28.4099 24.5999 30.4999 28.4099 35.5199 31.7599C35.6508 31.8554 35.7878 31.9422 35.9299 32.0199C36.8283 32.6041 37.8046 33.0586 38.8299 33.3699C40.123 33.7091 41.4945 33.578 42.6999 32.9999C43.9107 33.5927 45.2923 33.7379 46.5999 33.4099C46.7199 33.4099 46.9099 33.2999 47.0199 33.2599C47.8654 32.9634 48.674 32.5708 49.4299 32.0899C49.5832 32.0112 49.7303 31.921 49.8699 31.8199C55.2899 28.1999 57.3299 23.8399 56.9999 18.1099Z" fill="url(#paint1_linear)" id="id_127"></path>
<path d="M59.82 10.64C59.8422 9.47869 59.4934 8.34053 58.8244 7.39098C58.1554 6.44143 57.2011 5.72998 56.1 5.36003L48.5 3.08003C46.64 2.49003 45.36 4.86003 46.5 6.31003L55.1 18.6C55.1101 18.6384 55.131 18.673 55.16 18.7L56.3 20.34C56.5238 20.7017 56.8608 20.9792 57.2587 21.1296C57.6565 21.28 58.0928 21.2947 58.4999 21.1716C58.907 21.0484 59.262 20.7943 59.5097 20.4486C59.7575 20.1029 59.8841 19.6851 59.87 19.26C59.85 18.07 59.83 12 59.82 10.64Z" fill="url(#paint2_linear)" id="id_128"></path>
<path d="M38.93 6.31003C40.05 4.86003 38.77 2.49003 36.93 3.08003L29.33 5.36003C28.2289 5.72998 27.2746 6.44143 26.6056 7.39098C25.9366 8.34053 25.5878 9.47869 25.61 10.64V19.25C25.5973 19.6729 25.7239 20.0883 25.9704 20.4322C26.2169 20.7761 26.5695 21.0295 26.9741 21.1534C27.3787 21.2773 27.8127 21.2648 28.2095 21.1178C28.6063 20.9708 28.9437 20.6976 29.17 20.34L30.32 18.7V18.61L38.82 6.47003L38.93 6.31003Z" fill="url(#paint3_linear)" id="id_129"></path>
<path d="M44.3499 23H41.0599C40.6675 22.9981 40.2827 23.1089 39.9514 23.3192C39.62 23.5295 39.356 23.8305 39.1907 24.1864C39.0253 24.5423 38.9656 24.9382 39.0187 25.3271C39.0717 25.7159 39.2353 26.0814 39.4899 26.38L41.1299 28.29C41.3278 28.5121 41.5705 28.6897 41.8419 28.8114C42.1134 28.933 42.4074 28.9959 42.7049 28.9959C43.0024 28.9959 43.2964 28.933 43.5679 28.8114C43.8393 28.6897 44.082 28.5121 44.2799 28.29L45.9199 26.39C46.1733 26.0903 46.3358 25.7244 46.3883 25.3354C46.4408 24.9464 46.381 24.5505 46.216 24.1943C46.0511 23.8381 45.7878 23.5365 45.4572 23.3249C45.1266 23.1133 44.7424 23.0006 44.3499 23Z" fill="url(#paint4_linear)" id="id_130"></path>
<path d="M48.49 15.1401C47.5288 15.1869 46.6245 15.6092 45.9717 16.3162C45.3189 17.0232 44.97 17.9583 45 18.9201C45 19.1854 45.1053 19.4397 45.2928 19.6272C45.4804 19.8148 45.7347 19.9201 46 19.9201C46.2652 19.9201 46.5195 19.8148 46.7071 19.6272C46.8946 19.4397 47 19.1854 47 18.9201C46.9752 18.7032 46.9965 18.4834 47.0626 18.2753C47.1287 18.0671 47.2381 17.8753 47.3835 17.7124C47.5289 17.5494 47.707 17.419 47.9064 17.3298C48.1057 17.2405 48.3216 17.1944 48.54 17.1944C48.7583 17.1944 48.9743 17.2405 49.1736 17.3298C49.3729 17.419 49.551 17.5494 49.6964 17.7124C49.8418 17.8753 49.9512 18.0671 50.0173 18.2753C50.0834 18.4834 50.1047 18.7032 50.08 18.9201C50.08 19.1854 50.1853 19.4397 50.3728 19.6272C50.5604 19.8148 50.8147 19.9201 51.08 19.9201C51.3452 19.9201 51.5995 19.8148 51.7871 19.6272C51.9746 19.4397 52.08 19.1854 52.08 18.9201C52.0946 18.4357 52.0131 17.9531 51.8402 17.5003C51.6674 17.0475 51.4065 16.6334 51.0727 16.282C50.7389 15.9305 50.3389 15.6487 49.8956 15.4527C49.4523 15.2567 48.9745 15.1505 48.49 15.1401V15.1401Z" fill="url(#paint5_linear)" id="id_131"></path>
<path d="M40.46 18.92C40.4966 18.4328 40.4323 17.9432 40.271 17.482C40.1097 17.0207 39.855 16.5977 39.5227 16.2395C39.1904 15.8813 38.7877 15.5955 38.3398 15.4001C37.892 15.2046 37.4086 15.1038 36.92 15.1038C36.4314 15.1038 35.948 15.2046 35.5002 15.4001C35.0523 15.5955 34.6496 15.8813 34.3173 16.2395C33.985 16.5977 33.7303 17.0207 33.569 17.482C33.4077 17.9432 33.3433 18.4328 33.38 18.92C33.38 19.1852 33.4854 19.4396 33.6729 19.6271C33.8604 19.8147 34.1148 19.92 34.38 19.92C34.6452 19.92 34.8996 19.8147 35.0871 19.6271C35.2746 19.4396 35.38 19.1852 35.38 18.92C35.3552 18.7031 35.3766 18.4833 35.4427 18.2752C35.5088 18.067 35.6181 17.8752 35.7635 17.7122C35.9089 17.5493 36.0871 17.4189 36.2864 17.3297C36.4857 17.2404 36.7016 17.1942 36.92 17.1942C37.1384 17.1942 37.3543 17.2404 37.5536 17.3297C37.7529 17.4189 37.9311 17.5493 38.0765 17.7122C38.2219 17.8752 38.3312 18.067 38.3973 18.2752C38.4634 18.4833 38.4848 18.7031 38.46 18.92C38.46 19.1852 38.5653 19.4396 38.7529 19.6271C38.9404 19.8147 39.1948 19.92 39.46 19.92C39.7252 19.92 39.9796 19.8147 40.1671 19.6271C40.3546 19.4396 40.46 19.1852 40.46 18.92Z" fill="url(#paint6_linear)" id="id_132"></path>
<path d="M56.9 44.88C56.407 44.0449 55.6358 43.4099 54.7216 43.0863C53.8075 42.7627 52.8086 42.7711 51.9 43.11L43.9399 46.5C43.9399 46.5 43.86 46.5 43.86 46.44C44.39 43.85 41.73 41.44 39.13 41.56H32.85C32.85 41.85 26.91 38.34 26.74 38.29C25.6265 37.6468 24.3657 37.3023 23.08 37.29H15.9C15.884 37.29 15.8688 37.2837 15.8575 37.2724C15.8463 37.2612 15.84 37.2459 15.84 37.23C15.9166 36.7129 15.8825 36.1855 15.74 35.6826C15.5974 35.1797 15.3496 34.7128 15.0131 34.3129C14.6765 33.9129 14.2588 33.5891 13.7876 33.3628C13.3164 33.1364 12.8025 33.0128 12.28 33H8.76995C7.83265 32.9973 6.93209 33.3643 6.26372 34.0215C5.59536 34.6786 5.21311 35.5728 5.19995 36.51V54.51C5.19995 54.9784 5.29236 55.4421 5.47189 55.8747C5.65143 56.3073 5.91455 56.7001 6.24618 57.0309C6.57782 57.3616 6.97145 57.6236 7.40453 57.8019C7.8376 57.9802 8.30161 58.0713 8.76995 58.07H12.28C13.2241 58.07 14.1296 57.6949 14.7973 57.0273C15.4649 56.3597 15.84 55.4542 15.84 54.51C15.84 54.46 15.84 54.36 15.91 54.37C16.9985 54.5128 18.0522 54.8516 19.02 55.37L24.3 58.53C26.1917 59.7169 28.3476 60.4174 30.5757 60.5692C32.8037 60.721 35.0347 60.3194 37.07 59.4L54.88 50.7C55.4199 50.4801 55.9068 50.1476 56.3081 49.7246C56.7094 49.3016 57.0158 48.7979 57.207 48.2471C57.3982 47.6963 57.4697 47.1111 57.4167 46.5304C57.3638 45.9498 57.1876 45.3872 56.9 44.88V44.88Z" fill="url(#paint7_linear)" id="id_133"></path>
<path d="M12.28 33H8.76995C7.83265 32.9973 6.93209 33.3643 6.26372 34.0215C5.59536 34.6786 5.21311 35.5728 5.19995 36.51V54.51C5.19995 54.9784 5.29236 55.4421 5.47189 55.8747C5.65143 56.3073 5.91455 56.7001 6.24618 57.0309C6.57782 57.3616 6.97145 57.6236 7.40453 57.8019C7.8376 57.9802 8.30161 58.0713 8.76995 58.07H12.28C13.2241 58.07 14.1296 57.6949 14.7973 57.0273C15.4649 56.3597 15.84 55.4542 15.84 54.51V36.51C15.8268 35.5745 15.4459 34.6818 14.7797 34.025C14.1135 33.3681 13.2155 32.9999 12.28 33V33Z" fill="url(#paint8_linear)" id="id_134"></path>
<defs>
<linearGradient id="paint0_linear" x1="35.4799" y1="33.3999" x2="49.9299" y2="33.3999" gradientUnits="userSpaceOnUse">
<stop stop-color="#450652" id="id_135"></stop>
<stop offset="0.39" stop-color="#710387" id="id_136"></stop>
<stop offset="1" stop-color="#9611b0" id="id_137"></stop>
</linearGradient>
<linearGradient id="paint1_linear" x1="841.621" y1="559.166" x2="1659.99" y2="559.166" gradientUnits="userSpaceOnUse">
<stop stop-color="#6411c2" id="id_138"></stop>
<stop offset="0.39" stop-color="#E0B76B" id="id_139"></stop>
<stop offset="1" stop-color="#8c18a3" id="id_140"></stop>
</linearGradient>
<linearGradient id="paint2_linear" x1="46.06" y1="12.12" x2="59.85" y2="12.12" gradientUnits="userSpaceOnUse">
<stop stop-color="#141C2C" id="id_141"></stop>
<stop offset="0.84" stop-color="#090D14" id="id_142"></stop>
<stop offset="1" stop-color="#070A0F" id="id_143"></stop>
</linearGradient>
<linearGradient id="paint3_linear" x1="376.809" y1="224.183" x2="566.287" y2="224.183" gradientUnits="userSpaceOnUse">
<stop stop-color="#141C2C" id="id_144"></stop>
<stop offset="0.84" stop-color="#090D14" id="id_145"></stop>
<stop offset="1" stop-color="#070A0F" id="id_146"></stop>
</linearGradient>
<linearGradient id="paint4_linear" x1="327.795" y1="179.014" x2="382.828" y2="179.014" gradientUnits="userSpaceOnUse">
<stop stop-color="#141C2C" id="id_147"></stop>
<stop offset="0.84" stop-color="#090D14" id="id_148"></stop>
<stop offset="1" stop-color="#070A0F" id="id_149"></stop>
</linearGradient>
<linearGradient id="paint5_linear" x1="363.4" y1="98.8857" x2="413.551" y2="98.8857" gradientUnits="userSpaceOnUse">
<stop stop-color="#141C2C" id="id_150"></stop>
<stop offset="0.84" stop-color="#090D14" id="id_151"></stop>
<stop offset="1" stop-color="#070A0F" id="id_152"></stop>
</linearGradient>
<linearGradient id="paint6_linear" x1="270.368" y1="99.5812" x2="320.636" y2="99.5812" gradientUnits="userSpaceOnUse">
<stop stop-color="#141C2C" id="id_153"></stop>
<stop offset="0.84" stop-color="#090D14" id="id_154"></stop>
<stop offset="1" stop-color="#070A0F" id="id_155"></stop>
</linearGradient>
<linearGradient id="paint7_linear" x1="5.19995" y1="46.77" x2="57.43" y2="46.77" gradientUnits="userSpaceOnUse">
<stop stop-color="#7b248c" id="id_156"></stop>
<stop offset="0.42" stop-color="#AEAEAE" id="id_157"></stop>
<stop offset="1" stop-color="#450452" id="id_158"></stop>
</linearGradient>
<linearGradient id="paint8_linear" x1="60.528" y1="1174.19" x2="173.738" y2="1174.19" gradientUnits="userSpaceOnUse">
<stop stop-color="#610973" id="id_159"></stop>
<stop offset="0.39" stop-color="#5b086b" id="id_160"></stop>
<stop offset="1" stop-color="#370740" id="id_161"></stop>
</linearGradient>
</defs>
</svg>