<svg xmlns="http://www.w3.org/2000/svg" xmlns:xlink="http://www.w3.org/1999/xlink" viewBox="0 0 64 64"><defs><style>.cls-1{fill:url(#linear-gradient);}.cls-2{fill:url(#linear-gradient-2);}.cls-3{fill:url(#linear-gradient-3);}.cls-4{fill:url(#linear-gradient-4);}</style><linearGradient id="linear-gradient" x1="5.15" y1="46.46" x2="57.38" y2="46.46" gradientUnits="userSpaceOnUse"><stop offset="0" stop-color="#251263" id="id_117"></stop><stop offset="1" stop-color="#9d31fe" id="id_118"></stop></linearGradient><linearGradient id="linear-gradient-2" x1="25.57" y1="19.8" x2="59.85" y2="19.8" xlink:href="#linear-gradient"></linearGradient><linearGradient id="linear-gradient-3" x1="44.95" y1="17.53" x2="52.03" y2="17.53" xlink:href="#linear-gradient"></linearGradient><linearGradient id="linear-gradient-4" x1="33.38" y1="17.53" x2="40.46" y2="17.53" xlink:href="#linear-gradient"></linearGradient></defs><g id="Layer_34" data-name="Layer 34"><path class="cls-1" d="M51.84,42.88l-8,3.32a.05.05,0,0,1-.07-.06,3.72,3.72,0,0,0-.57-2.67,5,5,0,0,0-4.17-2.11H32.8a1.18,1.18,0,0,1-.55-.14l-5.56-3.06A7.55,7.55,0,0,0,23,37.22H15.85a.06.06,0,0,1-.06-.06v-.74a3.52,3.52,0,0,0-3.56-3.49H8.72a3.53,3.53,0,0,0-3.57,3.49V54.06a3.53,3.53,0,0,0,3.57,3.48h3.51a3.52,3.52,0,0,0,3.56-3.48V54a.05.05,0,0,1,.07,0,9.09,9.09,0,0,1,3.11.95L24.25,58a14.32,14.32,0,0,0,5.48,1.93A13.81,13.81,0,0,0,37,58.82l17.81-8.51a4,4,0,0,0,2-5.7A4.14,4.14,0,0,0,51.84,42.88Zm-38,11.18a1.61,1.61,0,0,1-1.63,1.59H8.72a1.61,1.61,0,0,1-1.63-1.59V36.42a1.62,1.62,0,0,1,1.63-1.6h3.51a1.62,1.62,0,0,1,1.63,1.6ZM54,48.39h0L36.15,56.93a11.5,11.5,0,0,1-6.15.91,11.73,11.73,0,0,1-4.62-1.63l-5.32-3.12a11.67,11.67,0,0,0-4.22-1.27.06.06,0,0,1-.05-.06V39.35a.06.06,0,0,1,.06-.06H23a5.43,5.43,0,0,1,2.62.67L31.22,43a3.24,3.24,0,0,0,1.58.41h6.72A2.19,2.19,0,0,1,41.68,45a2.08,2.08,0,0,1-2,2.59H28.88a1,1,0,1,0,0,2.07H39.64a4.26,4.26,0,0,0,2-.48l10.93-4.33a2,2,0,0,1,2.44.76A1.93,1.93,0,0,1,54,48.39Z" id="id_113"></path><path class="cls-2" d="M59.82,10.64A5.46,5.46,0,0,0,56.1,5.36L48.5,3.08a1.81,1.81,0,0,0-2,.69,1.86,1.86,0,0,0-.31.67,13.41,13.41,0,0,0-6.89,0A1.86,1.86,0,0,0,39,3.77a1.81,1.81,0,0,0-2-.69l-7.6,2.28a5.46,5.46,0,0,0-3.72,5.28l0,8.61a1.92,1.92,0,0,0,1.31,1.92,1.88,1.88,0,0,0,.57.09,2,2,0,0,0,1-.32c.05.48.11.95.19,1.4.71,3.81,2.83,6.73,6.84,9.42a1.63,1.63,0,0,0,.17.11,7.56,7.56,0,0,0,14,0l.15-.09c4-2.71,6.15-5.63,6.86-9.44.08-.45.15-.92.19-1.4a2,2,0,0,0,1,.32,1.88,1.88,0,0,0,.57-.09,1.92,1.92,0,0,0,1.32-1.91v-1.8h0Zm-32.23,0a3.42,3.42,0,0,1,2.3-3.36L37.34,5a.3.3,0,0,1-.05.14h0L28.64,17.54l-.06.09-1,1.45ZM39.41,33.51a4.17,4.17,0,0,0,.61,0A7,7,0,0,0,42.7,33a7.13,7.13,0,0,0,2.69.59,4.08,4.08,0,0,0,.61,0,5.49,5.49,0,0,1-6.59,0ZM42.77,27h-.12l-1.59-2,3.37.05,0,0h0Zm12-5c-.61,3.29-2.41,5.73-6,8.16a2.12,2.12,0,0,1-.33.21,10,10,0,0,1-2.08,1l-.21.08h0l-.1,0a1.91,1.91,0,0,1-.62.1,5.23,5.23,0,0,1-1.68-.33V28.75a2,2,0,0,0,.57-.44l1.64-1.9a2,2,0,0,0,.32-2.18A2.06,2.06,0,0,0,44.35,23H41.06a2.06,2.06,0,0,0-1.89,1.21,2,2,0,0,0,.32,2.17l1.64,1.91a2.32,2.32,0,0,0,.58.45v2.46a5.34,5.34,0,0,1-1.69.33,1.91,1.91,0,0,1-.62-.1l-.11,0h0A9.75,9.75,0,0,1,37,30.31l-.32-.19c-3.59-2.42-5.39-4.86-6-8.15a14.07,14.07,0,0,1-.24-2.66c0-.27,0-.55,0-.85L38.63,6.74a11.34,11.34,0,0,1,8.15,0L55,18.45c0,.28,0,.57,0,.86A14.07,14.07,0,0,1,54.76,22Zm3.08-2.89-1-1.44a.21.21,0,0,0-.06-.1L48.24,5.35l-.11-.17A.33.33,0,0,1,48.07,5l7.46,2.24a3.43,3.43,0,0,1,2.29,3.36l0,6.82Z" id="id_114"></path><path class="cls-3" d="M48.49,15.14A3.67,3.67,0,0,0,45,18.92a1,1,0,0,0,2,0,1.56,1.56,0,1,1,3.08,0,1,1,0,0,0,2,0A3.67,3.67,0,0,0,48.49,15.14Z" id="id_115"></path><path class="cls-4" d="M36.92,15.14a3.67,3.67,0,0,0-3.54,3.78,1,1,0,0,0,2,0,1.56,1.56,0,1,1,3.08,0,1,1,0,0,0,2,0A3.67,3.67,0,0,0,36.92,15.14Z" id="id_116"></path></g></svg>